<?xml version="1.0" encoding="utf-8"?>
<!-- Generator: Adobe Illustrator 26.0.1, SVG Export Plug-In . SVG Version: 6.00 Build 0)  -->
<svg version="1.1" id="Layer_1" xmlns="http://www.w3.org/2000/svg" xmlns:xlink="http://www.w3.org/1999/xlink" x="0px" y="0px"
	 viewBox="0 0 144 144" style="enable-background:new 0 0 144 144;" xml:space="preserve">
<g>
	<polygon points="97.72,82.11 96.82,82.11 89.91,92.49 90.82,92.49 	"/>
	<polygon points="22.88,45.56 8.55,23.99 135.45,23.99 121.12,45.56 122.02,45.56 136.46,23.83 136.85,23.24 7.15,23.24 
		21.98,45.56 	"/>
	<polygon points="79.98,107.44 72,119.43 64.02,107.44 63.12,107.44 72,120.79 80.88,107.44 	"/>
	<polygon points="53.18,92.49 54.09,92.49 47.18,82.11 46.28,82.11 	"/>
</g>
<g>
	<g>
		<path d="M67.82,84.9c-0.04,0.11-0.06,0.23-0.07,0.38c-0.01,0.14-0.03,0.34-0.04,0.6l-0.03,0.03h-0.16l-0.03-0.03
			c-0.01-0.01-0.01-0.1-0.03-0.26c-0.01-0.12-0.03-0.23-0.05-0.33c-0.23-0.08-0.56-0.12-0.97-0.12c-0.18,0-0.4,0.01-0.65,0.04
			c-0.02,0.18-0.04,0.6-0.04,1.28v0.58h0.05c0.08,0,0.44-0.01,0.51-0.01c0.13-0.01,0.22-0.03,0.25-0.04
			c0.02-0.01,0.04-0.04,0.06-0.08c0.02-0.04,0.03-0.11,0.04-0.24l0.02-0.18l0.03-0.03h0.17l0.03,0.03l-0.02,0.73
			c0,0.08,0,0.21,0.01,0.37c0.01,0.19,0.01,0.33,0.01,0.43l-0.03,0.03h-0.17l-0.03-0.03l-0.01-0.29c-0.01-0.11-0.02-0.2-0.03-0.25
			c-0.02-0.05-0.04-0.08-0.08-0.1c-0.04-0.01-0.12-0.03-0.24-0.04l-0.57-0.01v0.68l0.01,0.66c0,0.25,0.01,0.41,0.02,0.49
			c0.01,0.08,0.03,0.13,0.05,0.15c0.02,0.03,0.06,0.04,0.12,0.06c0.06,0.02,0.21,0.03,0.45,0.04l0.03,0.02v0.17l-0.03,0.03
			c-0.57-0.02-0.89-0.03-0.97-0.03c-0.07,0-0.39,0.01-0.96,0.03l-0.03-0.03v-0.17l0.03-0.02c0.21-0.01,0.35-0.02,0.42-0.03
			s0.11-0.03,0.14-0.06c0.03-0.02,0.04-0.06,0.06-0.13c0.01-0.07,0.03-0.22,0.03-0.46l0.01-0.72v-1.56l-0.01-0.65
			c-0.01-0.26-0.01-0.42-0.02-0.49c-0.01-0.08-0.03-0.13-0.05-0.15c-0.02-0.03-0.06-0.04-0.12-0.06c-0.06-0.02-0.21-0.03-0.45-0.04
			l-0.03-0.03V84.9l0.03-0.03l1.67,0.02c0.53,0,1.08-0.01,1.65-0.02L67.82,84.9z"/>
		<path d="M70.2,89.48c-0.3-0.12-0.57-0.3-0.79-0.54c-0.22-0.25-0.37-0.53-0.47-0.84c-0.1-0.32-0.15-0.61-0.15-0.87
			c0-0.34,0.04-0.65,0.14-0.94c0.1-0.29,0.27-0.56,0.49-0.8c0.23-0.25,0.51-0.44,0.84-0.58c0.33-0.14,0.7-0.21,1.11-0.21
			c0.77,0,1.37,0.21,1.83,0.63c0.45,0.42,0.68,0.99,0.68,1.7c0,0.51-0.11,0.96-0.33,1.37s-0.54,0.72-0.96,0.94
			c-0.41,0.22-0.88,0.34-1.39,0.34C70.85,89.66,70.51,89.6,70.2,89.48z M72.35,89.11c0.27-0.16,0.47-0.41,0.62-0.74
			c0.14-0.34,0.21-0.71,0.21-1.13c0-0.46-0.08-0.86-0.24-1.23c-0.17-0.37-0.39-0.63-0.69-0.8c-0.3-0.16-0.63-0.25-0.99-0.25
			c-0.54,0-0.98,0.17-1.29,0.51c-0.32,0.34-0.47,0.85-0.47,1.51c0,0.27,0.04,0.57,0.13,0.89c0.09,0.31,0.22,0.58,0.4,0.81
			c0.18,0.22,0.38,0.39,0.61,0.5s0.49,0.17,0.79,0.17C71.77,89.36,72.08,89.28,72.35,89.11z"/>
		<path d="M79.25,90.06l-0.03,0.15l-0.04,0.03l-0.83-0.05c-0.12-0.21-0.36-0.69-0.6-1.2c-0.27-0.56-0.55-1.09-0.84-1.58
			c-0.24,0.01-0.6,0.01-0.72-0.01v1.32c0.01,0.25,0.01,0.42,0.02,0.49c0.01,0.08,0.03,0.12,0.05,0.15c0.02,0.03,0.06,0.04,0.12,0.06
			c0.06,0.02,0.21,0.03,0.45,0.04l0.03,0.02v0.17l-0.03,0.03c-0.57-0.02-0.89-0.03-0.96-0.03c-0.08,0-0.4,0.01-0.96,0.03l-0.03-0.03
			v-0.17l0.03-0.02c0.21-0.01,0.35-0.02,0.42-0.03c0.06-0.01,0.11-0.03,0.14-0.05c0.02-0.03,0.04-0.07,0.06-0.14
			c0.01-0.07,0.02-0.22,0.03-0.46v-2.27l-0.01-0.66c0-0.25-0.01-0.42-0.02-0.49c-0.01-0.08-0.03-0.13-0.04-0.15
			c-0.03-0.02-0.06-0.04-0.13-0.06c-0.06-0.02-0.21-0.03-0.44-0.04l-0.03-0.03V84.9l0.03-0.03c0.56,0.02,0.92,0.03,1.08,0.03
			c0.22,0,0.45-0.01,0.71-0.01c0.28-0.01,0.45-0.02,0.52-0.02c0.31,0,0.57,0.04,0.78,0.1c0.2,0.06,0.37,0.18,0.51,0.35
			c0.13,0.18,0.2,0.38,0.2,0.63c0,0.2-0.04,0.4-0.14,0.59c-0.09,0.18-0.23,0.35-0.39,0.48c-0.17,0.13-0.34,0.22-0.51,0.28
			l-0.05,0.02l0.08,0.18c0.04,0.1,0.13,0.27,0.25,0.51l0.36,0.71c0.11,0.23,0.23,0.48,0.37,0.74c0.13,0.26,0.22,0.41,0.27,0.45
			c0.04,0.04,0.08,0.06,0.12,0.08c0.03,0.01,0.09,0.03,0.17,0.04L79.25,90.06z M77.03,87.16c0.29,0,0.53-0.09,0.71-0.29
			c0.18-0.2,0.27-0.44,0.27-0.75c0-0.3-0.09-0.54-0.28-0.73c-0.18-0.18-0.46-0.27-0.84-0.27c-0.21,0-0.43,0.04-0.68,0.11
			c-0.02,0.17-0.03,0.59-0.03,1.25v0.66C76.38,87.18,76.93,87.16,77.03,87.16z"/>
	</g>
</g>
<g>
	<path d="M54.47,35.82l-0.1,0.26c-0.01,0.01-0.02,0.03-0.03,0.03c-0.49,0.25-1.02,0.37-1.58,0.37c-0.81,0-1.46-0.23-1.97-0.69
		c-0.51-0.46-0.76-1.06-0.76-1.8c0-0.51,0.13-0.96,0.38-1.34c0.25-0.38,0.58-0.67,0.99-0.85c0.42-0.19,0.88-0.29,1.4-0.29
		c0.3,0,0.59,0.03,0.89,0.1c0.28,0.06,0.52,0.13,0.71,0.22c0.01,0.01,0.02,0.01,0.03,0.03l0.02,0.02l-0.39,0.36
		c-0.16-0.13-0.36-0.23-0.59-0.3c-0.23-0.08-0.47-0.11-0.73-0.11c-0.38,0-0.72,0.08-1.02,0.25c-0.3,0.16-0.53,0.4-0.7,0.7
		c-0.17,0.31-0.25,0.69-0.25,1.13c0,0.45,0.1,0.84,0.29,1.18c0.2,0.34,0.46,0.6,0.8,0.78c0.34,0.18,0.73,0.27,1.18,0.27
		c0.2,0,0.39-0.02,0.57-0.06s0.34-0.08,0.46-0.14c0.11-0.05,0.21-0.11,0.3-0.18c0.03-0.01,0.06-0.01,0.08,0.01
		C54.48,35.77,54.49,35.79,54.47,35.82z"/>
	<path d="M56.64,36.27c-0.3-0.12-0.57-0.3-0.79-0.54c-0.22-0.25-0.37-0.53-0.47-0.84c-0.1-0.32-0.15-0.61-0.15-0.87
		c0-0.34,0.04-0.65,0.14-0.94c0.1-0.29,0.27-0.56,0.49-0.8c0.23-0.25,0.51-0.44,0.84-0.58c0.33-0.14,0.7-0.21,1.11-0.21
		c0.77,0,1.37,0.21,1.83,0.63c0.45,0.42,0.68,0.99,0.68,1.7c0,0.51-0.11,0.96-0.33,1.37c-0.22,0.41-0.54,0.72-0.96,0.94
		c-0.41,0.22-0.88,0.34-1.39,0.34C57.28,36.45,56.95,36.39,56.64,36.27z M58.79,35.91c0.27-0.16,0.47-0.41,0.62-0.74
		c0.14-0.34,0.21-0.71,0.21-1.13c0-0.46-0.08-0.86-0.24-1.23c-0.17-0.37-0.39-0.63-0.69-0.8c-0.3-0.16-0.63-0.25-0.99-0.25
		c-0.54,0-0.98,0.17-1.29,0.51c-0.32,0.34-0.47,0.85-0.47,1.51c0,0.27,0.04,0.57,0.13,0.89c0.09,0.31,0.22,0.58,0.4,0.81
		c0.18,0.22,0.38,0.39,0.61,0.5c0.23,0.11,0.49,0.16,0.79,0.16C58.21,36.15,58.52,36.07,58.79,35.91z"/>
	<path d="M65.72,36.25v0.18l-0.03,0.03c-0.24-0.02-0.46-0.03-0.65-0.03c-0.37,0.01-0.74,0.03-1.11,0.03l-0.03-0.03v-0.18l0.03-0.03
		c0.25-0.01,0.41-0.02,0.47-0.03c0.06-0.02,0.09-0.06,0.09-0.12c0-0.04-0.01-0.11-0.04-0.19l-0.42-1.03h-1.94l-0.37,0.86
		c-0.07,0.15-0.1,0.27-0.1,0.34c0,0.06,0.03,0.1,0.1,0.13c0.06,0.03,0.21,0.04,0.46,0.04l0.03,0.03v0.18l-0.03,0.03
		c-0.28-0.02-0.54-0.03-0.76-0.03c-0.25,0-0.49,0.01-0.75,0.03l-0.03-0.03v-0.18l0.03-0.03c0.16,0,0.27-0.01,0.32-0.03
		c0.05-0.01,0.09-0.04,0.13-0.09c0.04-0.04,0.11-0.18,0.23-0.43l0.35-0.77l0.92-2.07c0.1-0.23,0.2-0.46,0.29-0.68l-0.17-0.37
		l0.53-0.37l0.08,0.21h0.01L64.78,35l0.19,0.45c0.06,0.13,0.12,0.27,0.2,0.42c0.07,0.15,0.12,0.24,0.15,0.27
		c0.03,0.02,0.06,0.05,0.11,0.06c0.04,0.01,0.13,0.03,0.28,0.03L65.72,36.25z M63.91,34.57l-0.85-2.03l-0.85,2.03H63.91z"/>
	<path d="M70.38,35.56c-0.02,0.26-0.03,0.71-0.03,0.87l-0.03,0.03c-0.42-0.01-0.98-0.02-1.68-0.02l-0.98-0.01
		c-0.23,0-0.46,0.01-0.69,0.03l-0.03-0.03v-0.11l0.03-0.03c0.14-0.07,0.22-0.11,0.23-0.13c0.01-0.01,0.03-0.16,0.04-0.43
		c0.01-0.28,0.03-0.61,0.03-0.99v-1.44l-0.01-0.65c-0.01-0.26-0.01-0.42-0.02-0.49c-0.01-0.08-0.03-0.13-0.05-0.15
		c-0.02-0.03-0.06-0.04-0.12-0.06c-0.06-0.02-0.21-0.03-0.45-0.04l-0.03-0.03V31.7l0.03-0.02c0.56,0.02,0.88,0.02,0.96,0.02
		c0.08,0,0.4-0.01,0.97-0.02l0.03,0.02v0.17l-0.03,0.03c-0.16,0.01-0.28,0.01-0.36,0.02c-0.08,0.01-0.15,0.03-0.18,0.05
		s-0.06,0.08-0.08,0.17c-0.01,0.1-0.02,0.22-0.02,0.38l-0.01,0.77v1.49c0,0.37,0.01,0.63,0.01,0.79l0.02,0.58h0.68
		c0.55,0,0.89-0.01,1.03-0.03c0.14-0.01,0.27-0.04,0.39-0.1c0.03-0.06,0.06-0.18,0.11-0.39L70.38,35.56z"/>
	<path d="M71.39,36.45v-0.17l0.03-0.02c0.21-0.01,0.35-0.02,0.42-0.03c0.07-0.01,0.11-0.03,0.14-0.06c0.02-0.02,0.04-0.06,0.06-0.13
		c0.01-0.07,0.02-0.23,0.02-0.46v-2.27l-0.01-0.65c0-0.26-0.01-0.42-0.02-0.49c-0.01-0.08-0.03-0.13-0.04-0.15
		c-0.03-0.03-0.06-0.04-0.13-0.06c-0.06-0.02-0.21-0.03-0.44-0.04l-0.03-0.02v-0.17l0.03-0.03l0.42,0.01
		c0.28,0.01,0.46,0.01,0.54,0.01c0.08,0,0.4-0.01,0.96-0.03l0.03,0.03v0.17l-0.03,0.02c-0.15,0.01-0.27,0.01-0.35,0.02
		c-0.09,0.01-0.15,0.03-0.18,0.05s-0.06,0.08-0.08,0.17c-0.01,0.1-0.02,0.22-0.02,0.38l-0.01,0.77v2.22
		c0.01,0.25,0.01,0.42,0.02,0.49c0.01,0.07,0.03,0.12,0.05,0.15c0.03,0.03,0.06,0.04,0.13,0.06c0.06,0.02,0.21,0.03,0.44,0.04
		l0.03,0.02v0.17l-0.03,0.03l-0.59-0.02c-0.16-0.01-0.29-0.01-0.37-0.01c-0.07,0-0.39,0.01-0.96,0.03L71.39,36.45z"/>
	<path d="M75.5,36.43v-0.17l0.03-0.02c0.21-0.01,0.35-0.02,0.42-0.03c0.07-0.01,0.11-0.03,0.14-0.06c0.02-0.02,0.04-0.06,0.06-0.13
		c0.01-0.07,0.02-0.23,0.02-0.46l0.01-0.72v-1.96L76.14,32h-0.5c-0.2,0-0.39,0.01-0.53,0.01c-0.15,0.01-0.24,0.03-0.26,0.07
		c-0.03,0.04-0.05,0.16-0.07,0.36l-0.03,0.31l-0.03,0.03h-0.15l-0.03-0.03c0-0.54-0.01-0.89-0.02-1.05l0.02-0.03
		c0.39,0.02,1.04,0.02,1.95,0.02c0.92,0,1.58-0.01,1.95-0.02l0.03,0.03c-0.02,0.2-0.03,0.55-0.03,1.05l-0.03,0.03h-0.16l-0.03-0.03
		l-0.04-0.31c-0.02-0.16-0.03-0.27-0.04-0.3c-0.01-0.04-0.03-0.06-0.04-0.08c-0.03-0.01-0.09-0.03-0.22-0.04
		C77.76,32.01,77.62,32,77.47,32h-0.64c-0.02,0.51-0.03,0.8-0.03,0.88v1.96l0.01,0.66c0,0.25,0.01,0.42,0.02,0.49
		c0.01,0.08,0.03,0.13,0.04,0.15c0.03,0.02,0.06,0.04,0.13,0.06c0.06,0.02,0.21,0.03,0.45,0.04l0.03,0.02v0.17l-0.03,0.03
		c-0.58-0.02-0.89-0.03-0.96-0.03c-0.07,0-0.39,0.01-0.96,0.03L75.5,36.43z"/>
	<path d="M79.6,36.45v-0.17l0.03-0.02c0.21-0.01,0.35-0.02,0.42-0.03c0.07-0.01,0.11-0.03,0.14-0.06c0.02-0.02,0.04-0.06,0.06-0.13
		c0.01-0.07,0.02-0.23,0.03-0.46v-2.27l-0.01-0.65c0-0.26-0.01-0.42-0.02-0.49c-0.01-0.08-0.03-0.13-0.04-0.15
		c-0.03-0.03-0.06-0.04-0.13-0.06c-0.06-0.02-0.21-0.03-0.44-0.04l-0.03-0.02v-0.17l0.03-0.03l0.42,0.01
		c0.28,0.01,0.46,0.01,0.54,0.01c0.08,0,0.4-0.01,0.96-0.03l0.03,0.03v0.17l-0.03,0.02c-0.15,0.01-0.27,0.01-0.36,0.02
		c-0.09,0.01-0.15,0.03-0.18,0.05s-0.06,0.08-0.08,0.17c-0.01,0.1-0.02,0.22-0.02,0.38l-0.01,0.77v2.22
		c0.01,0.25,0.01,0.42,0.02,0.49c0.01,0.07,0.03,0.12,0.05,0.15c0.03,0.03,0.06,0.04,0.13,0.06c0.06,0.02,0.21,0.03,0.44,0.04
		l0.03,0.02v0.17l-0.03,0.03l-0.59-0.02c-0.16-0.01-0.29-0.01-0.37-0.01c-0.07,0-0.39,0.01-0.96,0.03L79.6,36.45z"/>
	<path d="M83.81,36.27c-0.3-0.12-0.57-0.3-0.79-0.54c-0.22-0.25-0.37-0.53-0.47-0.84c-0.1-0.32-0.15-0.61-0.15-0.87
		c0-0.34,0.04-0.65,0.14-0.94c0.1-0.29,0.27-0.56,0.49-0.8c0.23-0.25,0.51-0.44,0.84-0.58c0.33-0.14,0.7-0.21,1.11-0.21
		c0.77,0,1.37,0.21,1.83,0.63c0.45,0.42,0.68,0.99,0.68,1.7c0,0.51-0.11,0.96-0.33,1.37s-0.54,0.72-0.96,0.94
		c-0.41,0.22-0.88,0.34-1.39,0.34C84.45,36.45,84.12,36.39,83.81,36.27z M85.96,35.91c0.27-0.16,0.48-0.41,0.62-0.74
		c0.14-0.34,0.21-0.71,0.21-1.13c0-0.46-0.08-0.86-0.24-1.23c-0.16-0.37-0.39-0.63-0.69-0.8c-0.3-0.16-0.63-0.25-1-0.25
		c-0.54,0-0.97,0.17-1.29,0.51c-0.32,0.34-0.47,0.85-0.47,1.51c0,0.27,0.04,0.57,0.13,0.89c0.09,0.31,0.22,0.58,0.4,0.81
		c0.18,0.22,0.38,0.39,0.61,0.5c0.23,0.11,0.49,0.16,0.79,0.16C85.38,36.15,85.69,36.07,85.96,35.91z"/>
	<path d="M93.65,31.71v0.16l-0.03,0.03c-0.15,0-0.27,0.01-0.34,0.02c-0.08,0.01-0.13,0.04-0.15,0.07c-0.02,0.04-0.04,0.08-0.04,0.15
		c-0.01,0.06-0.01,0.22-0.03,0.46c-0.01,0.25-0.01,0.42-0.01,0.53v2.52c0.01,0.3,0.01,0.49,0.01,0.8c-0.14-0.01-0.29,0.01-0.56,0
		l-0.26-0.31l-0.72-0.87l-2.28-2.85V35c0,0.1,0.01,0.29,0.01,0.55c0.01,0.26,0.02,0.42,0.03,0.48c0.01,0.06,0.03,0.1,0.04,0.11
		c0.02,0.02,0.06,0.04,0.12,0.06c0.06,0.02,0.18,0.03,0.37,0.03l0.03,0.03v0.16l-0.03,0.03c-0.12-0.02-0.3-0.03-0.56-0.03
		c-0.33,0-0.63,0.01-0.88,0.03l-0.03-0.03v-0.16l0.03-0.03c0.13,0,0.25-0.01,0.33-0.03s0.13-0.03,0.16-0.06
		c0.02-0.03,0.04-0.08,0.04-0.15c0.01-0.07,0.02-0.23,0.03-0.47c0.01-0.24,0.01-0.42,0.01-0.52V32.2l-0.59-0.4l-0.03-0.03v-0.06
		l0.02-0.03c0.31,0.01,0.51,0.02,0.61,0.02c0.23,0,0.41-0.01,0.56-0.02l1.08,1.4l1.58,1.98c0.19,0.24,0.39,0.47,0.58,0.68v-2.6
		c0-0.08,0-0.25-0.01-0.52c-0.01-0.27-0.01-0.43-0.03-0.5c-0.01-0.07-0.03-0.12-0.06-0.15c-0.03-0.03-0.08-0.04-0.16-0.06
		c-0.08-0.01-0.18-0.02-0.32-0.02l-0.03-0.03v-0.16l0.03-0.03c0.18,0.01,0.44,0.02,0.78,0.02c0.3,0,0.53-0.01,0.67-0.02L93.65,31.71
		z"/>
</g>
<g>
	<g>
		<path d="M101.91,77.41h-0.19c-3.05,0-5.6-0.75-7.64-2.25c-2.09-1.52-3.66-3.55-4.7-6.05c-1.04-2.5-1.57-5.12-1.57-7.87
			c0-2.73,0.53-5.35,1.57-7.85c1.04-2.5,2.6-4.51,4.66-6.02c2.07-1.51,4.61-2.26,7.62-2.26h0.26c-1.75,0.31-3.28,1.08-4.56,2.34
			c-1.3,1.27-2.23,2.71-2.81,4.37c-0.98,2.97-1.46,6.12-1.46,9.42c0,3.32,0.48,6.47,1.46,9.45c0.58,1.64,1.51,3.08,2.81,4.35
			C98.63,76.32,100.16,77.1,101.91,77.41z M104.19,77.41c3.05,0,5.6-0.75,7.64-2.25c2.09-1.52,3.66-3.55,4.7-6.05
			c1.04-2.5,1.57-5.12,1.57-7.87c0-2.73-0.53-5.35-1.57-7.85c-1.04-2.5-2.6-4.51-4.66-6.02c-2.07-1.51-4.61-2.26-7.62-2.26h-0.26
			c1.75,0.31,3.28,1.08,4.58,2.34c1.28,1.27,2.22,2.71,2.79,4.37c0.98,2.97,1.46,6.12,1.46,9.42c0,3.32-0.48,6.47-1.46,9.45
			c-0.58,1.64-1.51,3.08-2.79,4.35c-1.3,1.27-2.83,2.05-4.58,2.36H104.19z"/>
	</g>
	<g>
		<path d="M66.76,76.86h-9.47v-0.83h0.56c1.11,0,1.96-0.26,2.55-0.79c0.59-0.53,1.01-1.24,1.25-2.12c0.22-0.88,0.34-1.85,0.34-2.92
			V51.45c0-1.08-0.11-2.04-0.34-2.92c-0.24-0.88-0.66-1.57-1.25-2.1c-0.59-0.53-1.44-0.79-2.55-0.79h-0.56v-0.85h9.47l0.02,16.04
			L66.76,76.86z M79.82,69.15h-0.43c-0.16-2.09-0.53-3.72-1.11-4.9c-0.59-1.17-1.46-2.01-2.58-2.5c-1.14-0.5-2.58-0.77-4.37-0.82
			c2.65-0.05,4.64-0.67,5.96-1.86c1.32-1.2,2.02-3.32,2.1-6.36h0.43V69.15z M84.62,54.85h-0.55c-0.43-2.5-1.19-4.45-2.26-5.79
			c-1.08-1.36-2.42-2.34-4.01-2.95c-1.61-0.61-3.4-1.04-5.41-1.32h12.23V54.85z M84.62,76.86V66.79h-0.55
			c-0.43,2.5-1.19,4.45-2.26,5.79c-1.08,1.35-2.42,2.34-4.01,2.94c-1.61,0.61-3.4,1.06-5.41,1.33H84.62z"/>
	</g>
	<g>
		<path d="M37.7,76.79c-2.83-0.63-5.1-1.78-6.87-3.48c-1.77-1.69-3.02-3.61-3.72-5.75c-0.72-2.13-1.09-4.24-1.09-6.29
			c0-2.91,0.63-5.65,1.85-8.27c1.03-2.21,2.49-4.06,4.37-5.54c1.88-1.48,4.14-2.36,6.81-2.66c-2.1,0.83-3.61,1.88-4.56,3.11
			c-0.93,1.24-1.52,2.79-1.8,4.66c-0.26,1.86-0.42,4.14-0.47,6.82l-0.06,1.99c-0.03,0.61-0.03,1.2-0.03,1.77
			c0,5.92,1.24,10,3.74,12.25C36.5,75.97,37.11,76.44,37.7,76.79z M52.56,58.24h-0.59c-0.18-2.46-0.66-4.58-1.44-6.37
			c-0.79-1.78-1.75-3.26-2.89-4.41c-1.16-1.14-2.33-1.99-3.55-2.52c0.74,0.22,1.48,0.53,2.2,0.93c1.17,0.64,2.09,0.96,2.75,0.96
			c0.35,0,0.72-0.08,1.08-0.24c0.59-0.27,1.19-0.95,1.77-1.99h0.66L52.56,58.24z M52.53,77.21l0.03-13.64h-0.59
			c-0.18,2.46-0.66,4.58-1.44,6.36c-0.79,1.8-1.75,3.27-2.89,4.41c-1.16,1.16-2.33,2.01-3.55,2.54c0.74-0.21,1.48-0.53,2.22-0.93
			C47.49,75.3,48.39,75,49.02,75c0.37,0,0.72,0.08,1.09,0.24c0.59,0.27,1.19,0.93,1.77,1.97H52.53z"/>
	</g>
</g>
<g>
	<path d="M1.25,102.8v-0.11l0.03-0.03c0.13-0.07,0.2-0.11,0.22-0.13c0.02-0.02,0.04-0.21,0.05-0.59c0.01-0.37,0.02-0.67,0.02-0.86
		v-1.23l-0.01-0.77c0-0.16,0-0.3-0.01-0.41c-0.01-0.1-0.01-0.18-0.03-0.22c-0.01-0.04-0.02-0.08-0.04-0.09
		c-0.01-0.02-0.04-0.03-0.07-0.04s-0.09-0.03-0.16-0.03l-0.26-0.02l-0.03-0.03v-0.17l0.03-0.03c0.77,0.01,1.27,0.02,1.48,0.02
		c0.73,0,1.39-0.01,1.96-0.02l0.02,0.03c-0.06,0.22-0.1,0.55-0.13,1.01L4.32,99.1H4.16l-0.03-0.03c0-0.02,0.01-0.04,0.01-0.05
		c0-0.19-0.02-0.37-0.04-0.54c-0.15-0.06-0.34-0.11-0.59-0.13c-0.25-0.02-0.44-0.03-0.56-0.03c-0.18,0-0.41,0.01-0.68,0.04
		L2.25,98.9l-0.01,0.61l-0.01,0.68c0.25,0.01,0.47,0.02,0.67,0.02c0.21,0,0.38-0.01,0.52-0.02c0.14-0.01,0.22-0.02,0.24-0.04
		c0.03-0.01,0.04-0.04,0.06-0.08c0.01-0.04,0.03-0.11,0.03-0.22l0.01-0.03l0.02-0.03h0.16l0.03,0.03c-0.01,0.25-0.01,0.31-0.02,0.56
		l0.01,0.58l-0.03,0.03H3.77l-0.02-0.03l-0.03-0.2c-0.01-0.07-0.01-0.1-0.03-0.13c-0.03-0.03-0.03-0.03-0.06-0.05
		c-0.03-0.03-0.12-0.04-0.25-0.06c-0.13-0.01-0.32-0.02-0.56-0.02c-0.13,0-0.33,0.01-0.6,0.01c-0.01,0.19-0.01,0.51-0.01,0.94
		c0,0.47,0.01,0.82,0.01,1.04h0.62c0.54,0,0.89-0.01,1.03-0.03c0.13-0.01,0.27-0.04,0.39-0.09c0.03-0.05,0.06-0.17,0.1-0.36
		c0.04-0.18,0.07-0.3,0.08-0.35l0.03-0.03h0.16l0.03,0.03c-0.03,0.1-0.04,0.27-0.06,0.5c-0.02,0.24-0.03,0.45-0.03,0.62l-0.02,0.03
		c-0.43-0.01-0.99-0.02-1.68-0.02l-0.91-0.01c-0.22,0-0.44,0.01-0.66,0.03L1.25,102.8z"/>
	<path d="M8.38,102.2l-1.61-3.34v2.35c0,0.22,0,0.48,0.01,0.76c0.01,0.28,0.02,0.45,0.04,0.5c0.03,0.04,0.06,0.08,0.12,0.09
		c0.06,0.03,0.22,0.04,0.48,0.04l0.03,0.02v0.17l-0.03,0.03l-0.22-0.01c-0.22-0.01-0.41-0.02-0.57-0.02c-0.08,0-0.34,0.01-0.8,0.03
		l-0.03-0.03v-0.16l0.03-0.03c0.25-0.01,0.4-0.02,0.46-0.03c0.06-0.02,0.1-0.05,0.13-0.09c0.03-0.04,0.04-0.12,0.04-0.24l0.01-1.03
		v-1.54c0-0.2,0-0.46-0.01-0.75c-0.01-0.29-0.02-0.46-0.04-0.51c-0.02-0.04-0.06-0.08-0.11-0.1c-0.06-0.03-0.22-0.04-0.47-0.04
		l-0.03-0.03v-0.16l0.03-0.03c0.16,0.01,0.37,0.01,0.63,0.01c0.25,0,0.46,0,0.65-0.01c0.19,0.43,0.37,0.83,0.54,1.18l1.27,2.62
		l1.15-2.4c0.31-0.65,0.52-1.11,0.63-1.4c0.21,0.01,0.43,0.01,0.64,0.01c0.18,0,0.41,0,0.67-0.01l0.03,0.03v0.17l-0.03,0.03
		c-0.25,0.01-0.4,0.02-0.46,0.04c-0.06,0.01-0.1,0.04-0.13,0.09c-0.03,0.04-0.04,0.12-0.04,0.24c0,0.12-0.01,0.46-0.02,1.03v1.55
		c0,0.23,0.01,0.48,0.01,0.76c0.01,0.29,0.02,0.45,0.04,0.49c0.02,0.05,0.06,0.08,0.11,0.1c0.06,0.03,0.22,0.04,0.48,0.04l0.03,0.03
		v0.17l-0.03,0.02c-0.37-0.02-0.68-0.03-0.96-0.03c-0.18,0-0.5,0.01-0.94,0.03l-0.03-0.02v-0.17l0.02-0.03
		c0.25-0.01,0.4-0.02,0.46-0.04c0.06-0.02,0.1-0.04,0.13-0.09c0.02-0.04,0.04-0.13,0.04-0.25l0.01-1.03v-2.47l-1.16,2.43
		c-0.29,0.61-0.54,1.18-0.77,1.72H8.68C8.56,102.6,8.45,102.37,8.38,102.2z"/>
	<path d="M17.07,99.12c0,0.2-0.05,0.4-0.15,0.58c-0.09,0.19-0.22,0.35-0.39,0.48c-0.17,0.13-0.34,0.23-0.51,0.29
		c-0.17,0.06-0.35,0.09-0.54,0.09c-0.14,0-0.75,0.03-0.92-0.01v0.66l0.01,0.66c0,0.25,0.01,0.42,0.02,0.49
		c0.01,0.07,0.03,0.12,0.05,0.15c0.02,0.03,0.06,0.04,0.12,0.06c0.06,0.02,0.21,0.03,0.45,0.04l0.03,0.02v0.17l-0.03,0.03
		c-0.58-0.02-0.89-0.03-0.97-0.03c-0.08,0-0.39,0.01-0.96,0.03l-0.03-0.03v-0.17l0.03-0.02c0.21-0.01,0.35-0.02,0.42-0.03
		c0.07-0.01,0.11-0.03,0.14-0.06c0.03-0.02,0.04-0.06,0.06-0.13c0.02-0.07,0.02-0.23,0.02-0.46l0.01-0.72v-1.56L13.91,99
		c-0.01-0.26-0.01-0.42-0.02-0.49c-0.01-0.08-0.03-0.13-0.05-0.15c-0.02-0.03-0.06-0.04-0.12-0.06c-0.06-0.02-0.21-0.03-0.45-0.04
		l-0.03-0.03v-0.17l0.03-0.02c0.57,0.02,0.92,0.03,1.08,0.03c0.21,0,0.45-0.01,0.71-0.02l0.51-0.01c0.32,0,0.58,0.03,0.78,0.1
		c0.21,0.06,0.38,0.18,0.51,0.35S17.07,98.87,17.07,99.12z M16.38,99.29c0-0.3-0.09-0.55-0.28-0.73c-0.18-0.18-0.46-0.27-0.84-0.27
		c-0.2,0-0.42,0.04-0.67,0.11c-0.02,0.17-0.03,0.59-0.03,1.25v0.67c0.2,0.03,0.75,0.01,0.85,0.01c0.29,0,0.53-0.1,0.71-0.29
		C16.29,99.84,16.38,99.59,16.38,99.29z"/>
	<path d="M19.59,102.64c-0.3-0.12-0.57-0.3-0.79-0.54c-0.22-0.25-0.37-0.53-0.47-0.84c-0.1-0.32-0.15-0.61-0.15-0.87
		c0-0.34,0.04-0.65,0.14-0.94c0.1-0.29,0.27-0.56,0.49-0.8c0.23-0.25,0.51-0.44,0.84-0.58c0.33-0.14,0.7-0.21,1.11-0.21
		c0.77,0,1.37,0.21,1.83,0.63c0.45,0.42,0.68,0.99,0.68,1.7c0,0.51-0.11,0.96-0.33,1.37c-0.22,0.41-0.54,0.72-0.96,0.94
		c-0.41,0.22-0.88,0.34-1.39,0.34C20.24,102.82,19.9,102.76,19.59,102.64z M21.75,102.28c0.27-0.16,0.47-0.41,0.62-0.74
		c0.14-0.34,0.21-0.71,0.21-1.13c0-0.46-0.08-0.86-0.24-1.23c-0.17-0.37-0.39-0.63-0.69-0.8c-0.3-0.16-0.63-0.25-0.99-0.25
		c-0.54,0-0.98,0.17-1.29,0.51c-0.32,0.34-0.47,0.85-0.47,1.51c0,0.27,0.04,0.57,0.13,0.89c0.09,0.31,0.22,0.58,0.4,0.81
		c0.18,0.22,0.38,0.39,0.61,0.5s0.49,0.17,0.79,0.17C21.16,102.52,21.47,102.44,21.75,102.28z"/>
	<path d="M30.8,98.03v0.15l-0.03,0.03c-0.13,0.01-0.22,0.01-0.25,0.03c-0.04,0.02-0.08,0.05-0.11,0.09
		c-0.03,0.04-0.08,0.16-0.13,0.35l-0.2,0.63l-0.35,1.13c-0.05,0.17-0.14,0.49-0.27,0.99l-0.37,1.39h-0.34
		c-0.23-0.7-0.42-1.25-0.58-1.67l-0.73-1.98l-0.04-0.09l-0.67,1.65l-0.36,0.94c-0.1,0.25-0.17,0.45-0.23,0.61l-0.18,0.53h-0.34
		l-0.3-1.41l-0.65-2.77c-0.05-0.22-0.1-0.34-0.16-0.37s-0.18-0.05-0.37-0.08l-0.03-0.03v-0.15L24.13,98
		c0.32,0.02,0.61,0.03,0.86,0.03c0.18,0,0.46-0.01,0.81-0.03l0.03,0.03v0.15l-0.03,0.03c-0.25,0.01-0.4,0.03-0.45,0.04
		c-0.05,0.02-0.08,0.06-0.08,0.11c0,0.04,0.03,0.2,0.07,0.44c0.04,0.25,0.08,0.46,0.12,0.61l0.53,2.33l0.84-2.07
		c0.13-0.32,0.25-0.66,0.38-1l-0.28-0.65l0.66-0.35l0.09,0.29c0.18,0.56,0.37,1.11,0.56,1.64l0.79,2.2l0.57-2.01
		c0.06-0.21,0.13-0.49,0.22-0.83c0.09-0.34,0.13-0.54,0.13-0.6s-0.03-0.09-0.08-0.11c-0.06-0.01-0.22-0.03-0.49-0.03l-0.03-0.03
		v-0.15L29.38,98c0.39,0.02,0.61,0.03,0.69,0.03c0.08,0,0.31-0.01,0.7-0.03L30.8,98.03z"/>
	<path d="M32.21,102.8v-0.11l0.03-0.03c0.13-0.07,0.2-0.11,0.22-0.13c0.02-0.02,0.04-0.21,0.05-0.59c0.01-0.37,0.02-0.67,0.02-0.86
		v-1.23l-0.01-0.77c0-0.16,0-0.3-0.01-0.41c-0.01-0.1-0.01-0.18-0.03-0.22c-0.01-0.04-0.02-0.08-0.04-0.09
		c-0.01-0.02-0.04-0.03-0.07-0.04s-0.09-0.03-0.16-0.03l-0.26-0.02l-0.03-0.03v-0.17l0.03-0.03c0.77,0.01,1.27,0.02,1.48,0.02
		c0.73,0,1.39-0.01,1.96-0.02l0.02,0.03c-0.06,0.22-0.1,0.55-0.13,1.01l-0.02,0.03h-0.16l-0.03-0.03c0-0.02,0.01-0.04,0.01-0.05
		c0-0.19-0.02-0.37-0.04-0.54c-0.15-0.06-0.34-0.11-0.59-0.13c-0.25-0.02-0.44-0.03-0.56-0.03c-0.18,0-0.41,0.01-0.68,0.04
		l-0.01,0.54l-0.01,0.61l-0.01,0.68c0.25,0.01,0.47,0.02,0.67,0.02c0.21,0,0.38-0.01,0.52-0.02c0.14-0.01,0.22-0.02,0.24-0.04
		c0.03-0.01,0.04-0.04,0.06-0.08c0.01-0.04,0.03-0.11,0.03-0.22l0.01-0.03l0.02-0.03h0.16l0.03,0.03c-0.01,0.25-0.01,0.31-0.02,0.56
		l0.01,0.58l-0.03,0.03h-0.16l-0.02-0.03l-0.03-0.2c-0.01-0.07-0.01-0.1-0.03-0.13c-0.03-0.03-0.03-0.03-0.06-0.05
		c-0.03-0.03-0.12-0.04-0.25-0.06c-0.13-0.01-0.32-0.02-0.56-0.02c-0.13,0-0.33,0.01-0.6,0.01c-0.01,0.19-0.01,0.51-0.01,0.94
		c0,0.47,0.01,0.82,0.01,1.04h0.62c0.54,0,0.89-0.01,1.03-0.03c0.13-0.01,0.27-0.04,0.39-0.09c0.03-0.05,0.06-0.17,0.1-0.36
		c0.04-0.18,0.07-0.3,0.08-0.35l0.03-0.03h0.16l0.03,0.03c-0.03,0.1-0.04,0.27-0.06,0.5c-0.02,0.24-0.03,0.45-0.03,0.62l-0.02,0.03
		c-0.43-0.01-0.99-0.02-1.68-0.02l-0.91-0.01c-0.22,0-0.44,0.01-0.66,0.03L32.21,102.8z"/>
	<path d="M41.12,103.22l-0.03,0.15l-0.04,0.03l-0.83-0.05c-0.12-0.21-0.36-0.69-0.6-1.2c-0.27-0.56-0.55-1.09-0.84-1.58
		c-0.24,0.01-0.6,0.01-0.72-0.01v1.32c0.01,0.25,0.01,0.42,0.02,0.49c0.01,0.08,0.03,0.12,0.05,0.15s0.06,0.04,0.12,0.06
		c0.06,0.02,0.22,0.03,0.45,0.04l0.03,0.02v0.17l-0.03,0.03c-0.57-0.02-0.89-0.03-0.96-0.03c-0.08,0-0.4,0.01-0.96,0.03l-0.03-0.03
		v-0.17l0.03-0.02c0.21-0.01,0.35-0.02,0.42-0.03c0.06-0.01,0.11-0.03,0.14-0.05c0.02-0.03,0.04-0.07,0.06-0.14
		c0.01-0.07,0.02-0.22,0.02-0.46v-2.27L37.41,99c0-0.25-0.01-0.42-0.02-0.49c-0.01-0.08-0.03-0.13-0.04-0.15
		c-0.03-0.02-0.06-0.04-0.13-0.06c-0.06-0.02-0.21-0.03-0.44-0.04l-0.03-0.03v-0.17l0.03-0.03c0.56,0.02,0.92,0.03,1.08,0.03
		c0.22,0,0.45-0.01,0.71-0.01c0.28-0.01,0.45-0.02,0.52-0.02c0.31,0,0.57,0.04,0.78,0.1c0.2,0.06,0.37,0.18,0.51,0.35
		c0.13,0.18,0.2,0.38,0.2,0.63c0,0.2-0.04,0.4-0.14,0.59c-0.1,0.18-0.23,0.35-0.39,0.48c-0.17,0.13-0.34,0.22-0.51,0.28l-0.05,0.02
		l0.08,0.18c0.04,0.1,0.13,0.27,0.25,0.51l0.36,0.71c0.11,0.23,0.23,0.48,0.37,0.74c0.13,0.26,0.22,0.41,0.27,0.45
		c0.04,0.04,0.08,0.06,0.12,0.08c0.03,0.01,0.09,0.03,0.17,0.04L41.12,103.22z M38.91,100.33c0.29,0,0.53-0.09,0.71-0.29
		c0.18-0.2,0.27-0.44,0.27-0.75c0-0.3-0.09-0.54-0.28-0.73c-0.18-0.18-0.46-0.27-0.84-0.27c-0.21,0-0.43,0.04-0.68,0.11
		c-0.02,0.17-0.03,0.59-0.03,1.25v0.66C38.26,100.35,38.81,100.33,38.91,100.33z"/>
	<path d="M44.56,102.2l-1.61-3.34v2.35c0,0.22,0,0.48,0.01,0.76c0.01,0.28,0.02,0.45,0.04,0.5c0.03,0.04,0.06,0.08,0.12,0.09
		c0.06,0.03,0.22,0.04,0.48,0.04l0.03,0.02v0.17l-0.03,0.03l-0.22-0.01c-0.22-0.01-0.41-0.02-0.57-0.02c-0.08,0-0.34,0.01-0.8,0.03
		l-0.03-0.03v-0.16l0.03-0.03c0.25-0.01,0.4-0.02,0.46-0.03c0.06-0.02,0.1-0.05,0.13-0.09c0.03-0.04,0.04-0.12,0.04-0.24l0.01-1.03
		v-1.54c0-0.2,0-0.46-0.01-0.75c-0.01-0.29-0.02-0.46-0.04-0.51c-0.02-0.04-0.06-0.08-0.11-0.1c-0.06-0.03-0.22-0.04-0.47-0.04
		l-0.03-0.03v-0.16L42,98.05c0.16,0.01,0.37,0.01,0.63,0.01c0.25,0,0.46,0,0.65-0.01c0.19,0.43,0.37,0.83,0.54,1.18l1.27,2.62
		l1.15-2.4c0.31-0.65,0.52-1.11,0.63-1.4c0.21,0.01,0.43,0.01,0.64,0.01c0.18,0,0.41,0,0.67-0.01l0.03,0.03v0.17l-0.03,0.03
		c-0.25,0.01-0.4,0.02-0.46,0.04c-0.06,0.01-0.1,0.04-0.13,0.09c-0.03,0.04-0.04,0.12-0.04,0.24c0,0.12-0.01,0.46-0.02,1.03v1.55
		c0,0.23,0.01,0.48,0.01,0.76c0.01,0.29,0.02,0.45,0.04,0.49c0.02,0.05,0.06,0.08,0.11,0.1c0.06,0.03,0.22,0.04,0.48,0.04l0.03,0.03
		v0.17l-0.03,0.02c-0.37-0.02-0.68-0.03-0.96-0.03c-0.18,0-0.5,0.01-0.94,0.03l-0.03-0.02v-0.17l0.02-0.03
		c0.25-0.01,0.4-0.02,0.46-0.04c0.06-0.02,0.1-0.04,0.13-0.09c0.02-0.04,0.04-0.13,0.04-0.25l0.01-1.03v-2.47l-1.16,2.43
		c-0.29,0.61-0.54,1.18-0.77,1.72h-0.13C44.74,102.6,44.63,102.37,44.56,102.2z"/>
	<path d="M49.65,102.8v-0.11l0.03-0.03c0.13-0.07,0.2-0.11,0.22-0.13c0.02-0.02,0.04-0.21,0.05-0.59c0.01-0.37,0.02-0.67,0.02-0.86
		v-1.23l-0.01-0.77c0-0.16,0-0.3-0.01-0.41c-0.01-0.1-0.01-0.18-0.03-0.22c-0.01-0.04-0.02-0.08-0.04-0.09
		c-0.01-0.02-0.04-0.03-0.07-0.04s-0.09-0.03-0.16-0.03l-0.26-0.02l-0.03-0.03v-0.17l0.03-0.03c0.77,0.01,1.27,0.02,1.48,0.02
		c0.73,0,1.39-0.01,1.96-0.02l0.02,0.03c-0.06,0.22-0.1,0.55-0.13,1.01l-0.02,0.03h-0.16l-0.03-0.03c0-0.02,0.01-0.04,0.01-0.05
		c0-0.19-0.02-0.37-0.04-0.54c-0.15-0.06-0.34-0.11-0.59-0.13c-0.25-0.02-0.44-0.03-0.56-0.03c-0.18,0-0.41,0.01-0.68,0.04
		l-0.01,0.54l-0.01,0.61l-0.01,0.68c0.25,0.01,0.47,0.02,0.67,0.02c0.21,0,0.38-0.01,0.52-0.02c0.14-0.01,0.22-0.02,0.24-0.04
		c0.03-0.01,0.04-0.04,0.06-0.08c0.01-0.04,0.03-0.11,0.03-0.22l0.01-0.03l0.02-0.03h0.16l0.03,0.03c-0.01,0.25-0.01,0.31-0.02,0.56
		l0.01,0.58l-0.03,0.03h-0.16l-0.02-0.03l-0.03-0.2c-0.01-0.07-0.01-0.1-0.03-0.13c-0.03-0.03-0.03-0.03-0.06-0.05
		c-0.03-0.03-0.12-0.04-0.25-0.06c-0.13-0.01-0.32-0.02-0.56-0.02c-0.13,0-0.33,0.01-0.6,0.01c-0.01,0.19-0.01,0.51-0.01,0.94
		c0,0.47,0.01,0.82,0.01,1.04h0.62c0.54,0,0.89-0.01,1.03-0.03c0.13-0.01,0.27-0.04,0.39-0.09c0.03-0.05,0.06-0.17,0.1-0.36
		c0.04-0.18,0.07-0.3,0.08-0.35l0.03-0.03h0.16l0.03,0.03c-0.03,0.1-0.04,0.27-0.06,0.5c-0.02,0.24-0.03,0.45-0.03,0.62l-0.02,0.03
		c-0.43-0.01-0.99-0.02-1.68-0.02l-0.91-0.01c-0.22,0-0.44,0.01-0.66,0.03L49.65,102.8z"/>
	<path d="M59.47,98.08v0.16l-0.03,0.03c-0.15,0-0.27,0.01-0.34,0.03c-0.08,0.01-0.13,0.04-0.15,0.07c-0.02,0.04-0.04,0.08-0.04,0.15
		c-0.01,0.06-0.01,0.22-0.03,0.46c-0.01,0.25-0.01,0.42-0.01,0.53v2.52c0.01,0.3,0.01,0.49,0.01,0.8c-0.14-0.01-0.29,0.01-0.56,0
		l-0.26-0.31l-0.72-0.87l-2.28-2.85v2.58c0,0.1,0.01,0.29,0.01,0.55c0.01,0.26,0.02,0.42,0.03,0.48c0.01,0.06,0.03,0.09,0.04,0.11
		c0.02,0.02,0.06,0.04,0.12,0.06c0.06,0.02,0.18,0.03,0.37,0.03l0.03,0.02v0.16l-0.03,0.03c-0.12-0.02-0.3-0.03-0.56-0.03
		c-0.34,0-0.63,0.01-0.88,0.03l-0.03-0.03v-0.16l0.03-0.02c0.13,0,0.25-0.01,0.33-0.03c0.08-0.01,0.13-0.03,0.16-0.06
		c0.02-0.03,0.04-0.08,0.04-0.15s0.02-0.23,0.03-0.47c0.01-0.24,0.01-0.42,0.01-0.52v-2.8l-0.6-0.4l-0.03-0.03v-0.06l0.03-0.03
		c0.31,0.01,0.51,0.02,0.61,0.02c0.23,0,0.41-0.01,0.56-0.02l1.08,1.4l1.58,1.98c0.19,0.24,0.39,0.47,0.58,0.68v-2.6
		c0-0.08,0-0.25-0.01-0.52c-0.01-0.27-0.01-0.43-0.03-0.5c-0.01-0.07-0.03-0.12-0.06-0.15c-0.03-0.03-0.08-0.04-0.16-0.06
		c-0.08-0.01-0.18-0.02-0.32-0.02l-0.03-0.03v-0.16L58,98.05c0.18,0.01,0.44,0.02,0.78,0.02c0.3,0,0.53-0.01,0.67-0.02L59.47,98.08z
		"/>
	<path d="M61.61,102.8v-0.17l0.03-0.02c0.21-0.01,0.35-0.02,0.42-0.03s0.11-0.03,0.14-0.06c0.02-0.02,0.04-0.06,0.06-0.13
		c0.01-0.07,0.03-0.23,0.03-0.46l0.01-0.72v-1.96l-0.03-0.88h-0.5c-0.2,0-0.39,0.01-0.53,0.01c-0.15,0.01-0.24,0.03-0.26,0.07
		c-0.02,0.04-0.05,0.16-0.07,0.36l-0.03,0.31l-0.03,0.03h-0.15l-0.03-0.03c0-0.54-0.01-0.89-0.03-1.05l0.03-0.03
		c0.39,0.02,1.04,0.03,1.95,0.03c0.92,0,1.58-0.01,1.95-0.03l0.03,0.03c-0.02,0.2-0.03,0.55-0.03,1.05l-0.03,0.03h-0.16l-0.03-0.03
		l-0.04-0.31c-0.02-0.16-0.03-0.27-0.04-0.3c-0.01-0.04-0.03-0.06-0.04-0.08c-0.03-0.01-0.09-0.03-0.22-0.04
		c-0.12-0.01-0.26-0.02-0.41-0.02h-0.64c-0.02,0.51-0.03,0.8-0.03,0.88v1.96l0.01,0.66c0,0.25,0.01,0.42,0.02,0.49
		c0.01,0.08,0.03,0.13,0.04,0.15c0.03,0.03,0.06,0.04,0.13,0.06c0.06,0.02,0.21,0.03,0.45,0.04l0.02,0.02v0.17l-0.02,0.03
		c-0.58-0.02-0.89-0.03-0.96-0.03c-0.07,0-0.39,0.01-0.96,0.03L61.61,102.8z"/>
</g>
<g>
	<path d="M82.13,102.57c-0.3-0.12-0.57-0.3-0.79-0.54c-0.22-0.25-0.37-0.53-0.47-0.84c-0.1-0.32-0.15-0.61-0.15-0.87
		c0-0.34,0.04-0.65,0.14-0.94c0.1-0.29,0.27-0.56,0.49-0.8c0.23-0.25,0.51-0.44,0.84-0.58c0.33-0.14,0.7-0.21,1.11-0.21
		c0.77,0,1.37,0.21,1.83,0.63c0.45,0.42,0.68,0.99,0.68,1.7c0,0.51-0.11,0.96-0.33,1.37s-0.54,0.72-0.96,0.94
		c-0.41,0.22-0.88,0.34-1.39,0.34C82.78,102.76,82.44,102.69,82.13,102.57z M84.29,102.21c0.27-0.16,0.48-0.41,0.62-0.74
		c0.14-0.34,0.21-0.71,0.21-1.13c0-0.46-0.08-0.86-0.24-1.23c-0.16-0.37-0.39-0.63-0.69-0.8c-0.3-0.16-0.63-0.25-1-0.25
		c-0.54,0-0.97,0.17-1.29,0.51c-0.32,0.34-0.47,0.85-0.47,1.51c0,0.27,0.04,0.57,0.13,0.89c0.09,0.31,0.22,0.58,0.4,0.81
		c0.18,0.22,0.38,0.39,0.61,0.5s0.49,0.17,0.79,0.17C83.7,102.45,84.01,102.38,84.29,102.21z"/>
	<path d="M90.63,99.05c0,0.2-0.05,0.4-0.15,0.58c-0.09,0.19-0.22,0.35-0.39,0.48c-0.17,0.13-0.34,0.23-0.51,0.29
		c-0.17,0.06-0.35,0.09-0.54,0.09c-0.14,0-0.75,0.03-0.92-0.01v0.66l0.01,0.66c0,0.25,0.01,0.42,0.02,0.49
		c0.01,0.07,0.03,0.12,0.05,0.15c0.02,0.03,0.06,0.04,0.12,0.06c0.06,0.02,0.21,0.03,0.45,0.04l0.03,0.02v0.17l-0.03,0.03
		c-0.58-0.02-0.89-0.03-0.97-0.03s-0.39,0.01-0.96,0.03l-0.03-0.03v-0.17l0.03-0.02c0.21-0.01,0.35-0.02,0.42-0.03
		c0.07-0.01,0.11-0.03,0.14-0.06c0.03-0.02,0.04-0.06,0.06-0.13c0.02-0.07,0.03-0.23,0.03-0.46l0.01-0.72v-1.56l-0.01-0.65
		c-0.01-0.26-0.01-0.42-0.02-0.49c-0.01-0.08-0.03-0.13-0.05-0.15c-0.02-0.03-0.06-0.04-0.12-0.06c-0.06-0.02-0.21-0.03-0.45-0.04
		l-0.03-0.03V98l0.03-0.02C87.4,98,87.75,98,87.91,98c0.21,0,0.45-0.01,0.71-0.02l0.51-0.01c0.32,0,0.58,0.03,0.78,0.1
		c0.21,0.06,0.38,0.18,0.51,0.35C90.56,98.6,90.63,98.81,90.63,99.05z M89.94,99.22c0-0.3-0.09-0.55-0.28-0.73
		c-0.18-0.18-0.46-0.27-0.84-0.27c-0.2,0-0.42,0.04-0.67,0.11c-0.02,0.17-0.03,0.59-0.03,1.25v0.67c0.2,0.03,0.75,0.01,0.85,0.01
		c0.29,0,0.53-0.1,0.71-0.29C89.85,99.77,89.94,99.53,89.94,99.22z"/>
	<path d="M95.53,99.05c0,0.2-0.05,0.4-0.15,0.58c-0.09,0.19-0.22,0.35-0.39,0.48c-0.17,0.13-0.34,0.23-0.51,0.29
		c-0.17,0.06-0.35,0.09-0.54,0.09c-0.14,0-0.75,0.03-0.92-0.01v0.66l0.01,0.66c0,0.25,0.01,0.42,0.02,0.49
		c0.01,0.07,0.03,0.12,0.05,0.15c0.02,0.03,0.06,0.04,0.12,0.06c0.06,0.02,0.21,0.03,0.45,0.04l0.03,0.02v0.17l-0.03,0.03
		c-0.58-0.02-0.89-0.03-0.97-0.03s-0.39,0.01-0.96,0.03l-0.03-0.03v-0.17l0.03-0.02c0.21-0.01,0.35-0.02,0.42-0.03
		c0.07-0.01,0.11-0.03,0.14-0.06c0.03-0.02,0.04-0.06,0.06-0.13c0.02-0.07,0.03-0.23,0.03-0.46l0.01-0.72v-1.56l-0.01-0.65
		c-0.01-0.26-0.01-0.42-0.02-0.49c-0.01-0.08-0.03-0.13-0.05-0.15c-0.02-0.03-0.06-0.04-0.12-0.06c-0.06-0.02-0.21-0.03-0.45-0.04
		l-0.03-0.03V98l0.03-0.02C92.3,98,92.65,98,92.81,98c0.21,0,0.45-0.01,0.71-0.02l0.51-0.01c0.32,0,0.58,0.03,0.78,0.1
		c0.21,0.06,0.38,0.18,0.51,0.35C95.46,98.6,95.53,98.81,95.53,99.05z M94.84,99.22c0-0.3-0.09-0.55-0.28-0.73
		c-0.18-0.18-0.46-0.27-0.84-0.27c-0.2,0-0.42,0.04-0.67,0.11c-0.02,0.17-0.03,0.59-0.03,1.25v0.67c0.2,0.03,0.75,0.01,0.85,0.01
		c0.29,0,0.53-0.1,0.71-0.29C94.75,99.77,94.84,99.53,94.84,99.22z"/>
	<path d="M98.05,102.57c-0.3-0.12-0.57-0.3-0.79-0.54c-0.22-0.25-0.37-0.53-0.47-0.84c-0.1-0.32-0.15-0.61-0.15-0.87
		c0-0.34,0.04-0.65,0.14-0.94c0.1-0.29,0.27-0.56,0.49-0.8c0.23-0.25,0.51-0.44,0.84-0.58c0.33-0.14,0.7-0.21,1.11-0.21
		c0.77,0,1.37,0.21,1.83,0.63c0.45,0.42,0.68,0.99,0.68,1.7c0,0.51-0.11,0.96-0.33,1.37s-0.54,0.72-0.96,0.94
		c-0.41,0.22-0.88,0.34-1.39,0.34C98.69,102.76,98.36,102.69,98.05,102.57z M100.2,102.21c0.27-0.16,0.48-0.41,0.62-0.74
		c0.14-0.34,0.21-0.71,0.21-1.13c0-0.46-0.08-0.86-0.24-1.23c-0.16-0.37-0.39-0.63-0.69-0.8c-0.3-0.16-0.63-0.25-1-0.25
		c-0.54,0-0.97,0.17-1.29,0.51c-0.32,0.34-0.47,0.85-0.47,1.51c0,0.27,0.04,0.57,0.13,0.89c0.09,0.31,0.22,0.58,0.4,0.81
		c0.18,0.22,0.38,0.39,0.61,0.5s0.49,0.17,0.79,0.17C99.62,102.45,99.93,102.38,100.2,102.21z"/>
	<path d="M107.09,103.16l-0.03,0.15l-0.04,0.03l-0.83-0.05c-0.12-0.21-0.36-0.69-0.6-1.2c-0.27-0.56-0.55-1.09-0.84-1.58
		c-0.24,0.01-0.6,0.01-0.72-0.01v1.32c0.01,0.25,0.01,0.42,0.02,0.49c0.01,0.08,0.03,0.12,0.05,0.15c0.02,0.03,0.06,0.04,0.12,0.06
		c0.06,0.02,0.21,0.03,0.45,0.04l0.03,0.02v0.17l-0.03,0.03c-0.57-0.02-0.89-0.03-0.96-0.03c-0.08,0-0.4,0.01-0.96,0.03l-0.03-0.03
		v-0.17l0.03-0.02c0.21-0.01,0.35-0.02,0.42-0.03c0.06-0.01,0.11-0.03,0.14-0.05c0.02-0.03,0.04-0.07,0.06-0.14
		c0.01-0.07,0.02-0.22,0.03-0.46v-2.27l-0.01-0.66c0-0.25-0.01-0.42-0.02-0.49c-0.01-0.08-0.03-0.13-0.04-0.15
		c-0.03-0.02-0.06-0.04-0.13-0.06c-0.06-0.02-0.21-0.03-0.44-0.04l-0.03-0.03V98l0.03-0.03c0.56,0.02,0.92,0.03,1.08,0.03
		c0.22,0,0.45-0.01,0.71-0.01c0.28-0.01,0.45-0.02,0.52-0.02c0.31,0,0.57,0.04,0.78,0.1c0.2,0.06,0.37,0.18,0.51,0.35
		c0.13,0.18,0.2,0.38,0.2,0.63c0,0.2-0.04,0.4-0.14,0.59c-0.09,0.18-0.23,0.35-0.39,0.48c-0.17,0.13-0.34,0.22-0.51,0.28l-0.05,0.02
		l0.08,0.18c0.04,0.1,0.13,0.27,0.25,0.51l0.36,0.71c0.11,0.23,0.23,0.48,0.37,0.74c0.13,0.26,0.22,0.41,0.27,0.45
		c0.04,0.04,0.08,0.06,0.12,0.08c0.03,0.01,0.09,0.03,0.17,0.04L107.09,103.16z M104.88,100.26c0.29,0,0.53-0.09,0.71-0.29
		c0.18-0.2,0.27-0.44,0.27-0.75c0-0.3-0.09-0.54-0.28-0.73c-0.18-0.18-0.46-0.27-0.84-0.27c-0.21,0-0.43,0.04-0.68,0.11
		c-0.02,0.17-0.03,0.59-0.03,1.25v0.66C104.23,100.28,104.78,100.26,104.88,100.26z"/>
	<path d="M108.83,102.73v-0.17l0.03-0.02c0.21-0.01,0.35-0.02,0.42-0.03c0.07-0.01,0.11-0.03,0.14-0.06
		c0.02-0.02,0.04-0.06,0.06-0.13c0.01-0.07,0.02-0.23,0.02-0.46l0.01-0.72v-1.96l-0.03-0.88h-0.5c-0.2,0-0.39,0.01-0.53,0.01
		c-0.15,0.01-0.24,0.03-0.26,0.07c-0.03,0.04-0.05,0.16-0.07,0.36l-0.03,0.31l-0.03,0.03h-0.15l-0.03-0.03
		c0-0.54-0.01-0.89-0.02-1.05l0.02-0.03c0.39,0.02,1.04,0.03,1.95,0.03c0.92,0,1.58-0.01,1.95-0.03l0.03,0.03
		c-0.02,0.2-0.03,0.55-0.03,1.05l-0.03,0.03h-0.16l-0.03-0.03l-0.04-0.31c-0.02-0.16-0.03-0.27-0.04-0.3
		c-0.01-0.04-0.03-0.06-0.04-0.08c-0.03-0.01-0.09-0.03-0.22-0.04c-0.12-0.01-0.26-0.02-0.41-0.02h-0.64
		c-0.02,0.51-0.03,0.8-0.03,0.88v1.96l0.01,0.66c0,0.25,0.01,0.42,0.02,0.49c0.01,0.08,0.03,0.13,0.04,0.15
		c0.03,0.03,0.06,0.04,0.13,0.06c0.06,0.02,0.21,0.03,0.45,0.04l0.03,0.02v0.17l-0.03,0.03c-0.58-0.02-0.89-0.03-0.96-0.03
		c-0.07,0-0.39,0.01-0.96,0.03L108.83,102.73z"/>
	<path d="M114.6,102.76c-0.24-0.07-0.43-0.17-0.57-0.28c-0.14-0.11-0.24-0.23-0.3-0.36c-0.06-0.13-0.1-0.28-0.12-0.45
		s-0.03-0.43-0.03-0.79v-1.29l-0.01-0.66c-0.01-0.25-0.01-0.42-0.02-0.49c-0.01-0.08-0.03-0.12-0.05-0.15
		c-0.02-0.03-0.06-0.04-0.12-0.06c-0.06-0.01-0.21-0.03-0.45-0.04l-0.03-0.02V98l0.03-0.03c0.56,0.02,0.88,0.03,0.96,0.03
		c0.08,0,0.4-0.01,0.97-0.03L114.9,98v0.17l-0.03,0.02c-0.16,0.01-0.28,0.01-0.36,0.03c-0.08,0.01-0.15,0.03-0.18,0.05
		c-0.04,0.02-0.06,0.08-0.08,0.17c-0.01,0.09-0.02,0.21-0.02,0.38l-0.01,0.77v1.07c0,0.35,0.01,0.61,0.03,0.77
		c0.01,0.16,0.04,0.3,0.09,0.42c0.05,0.11,0.13,0.21,0.22,0.3c0.1,0.08,0.24,0.15,0.42,0.2c0.18,0.05,0.39,0.08,0.63,0.08
		c0.25,0,0.48-0.03,0.69-0.1c0.21-0.07,0.38-0.17,0.49-0.3c0.11-0.13,0.18-0.3,0.21-0.51c0.04-0.21,0.06-0.51,0.06-0.88v-1.04
		c0-0.18-0.01-0.42-0.01-0.72c0-0.3-0.02-0.48-0.04-0.53c-0.02-0.04-0.06-0.08-0.12-0.1c-0.06-0.03-0.21-0.04-0.47-0.04l-0.03-0.03
		v-0.16l0.03-0.03c0.34,0.02,0.6,0.03,0.8,0.03c0.17,0,0.44-0.01,0.8-0.03l0.03,0.03v0.16l-0.03,0.03
		c-0.21,0.01-0.35,0.01-0.42,0.03c-0.06,0.01-0.11,0.03-0.13,0.06s-0.04,0.06-0.06,0.11s-0.02,0.2-0.03,0.44l-0.01,0.76v1.03
		c0,0.41-0.02,0.73-0.05,0.96c-0.03,0.23-0.1,0.43-0.21,0.58c-0.11,0.15-0.24,0.28-0.39,0.38c-0.15,0.1-0.34,0.18-0.58,0.23
		c-0.23,0.06-0.48,0.08-0.73,0.08C115.12,102.86,114.84,102.83,114.6,102.76z"/>
	<path d="M124.49,98.01v0.16l-0.03,0.03c-0.15,0-0.27,0.01-0.34,0.03c-0.08,0.01-0.13,0.04-0.15,0.07
		c-0.02,0.04-0.04,0.08-0.04,0.15c-0.01,0.06-0.01,0.22-0.03,0.46c-0.01,0.25-0.01,0.42-0.01,0.53v2.52c0.01,0.3,0.01,0.49,0.01,0.8
		c-0.14-0.01-0.29,0.01-0.56,0l-0.26-0.31l-0.72-0.87l-2.28-2.85v2.58c0,0.1,0.01,0.29,0.01,0.55c0.01,0.26,0.02,0.42,0.03,0.48
		c0.01,0.06,0.03,0.09,0.04,0.11c0.02,0.02,0.06,0.04,0.12,0.06c0.06,0.02,0.18,0.03,0.37,0.03l0.03,0.02v0.16l-0.03,0.03
		c-0.12-0.02-0.3-0.03-0.56-0.03c-0.33,0-0.63,0.01-0.88,0.03l-0.03-0.03v-0.16l0.03-0.02c0.13,0,0.25-0.01,0.33-0.03
		s0.13-0.03,0.16-0.06c0.02-0.03,0.04-0.08,0.04-0.15c0.01-0.07,0.02-0.23,0.03-0.47c0.01-0.24,0.01-0.42,0.01-0.52v-2.8l-0.59-0.4
		l-0.03-0.03v-0.06l0.02-0.03c0.31,0.01,0.51,0.02,0.61,0.02c0.23,0,0.41-0.01,0.56-0.02l1.08,1.4l1.58,1.98
		c0.19,0.24,0.39,0.47,0.58,0.68v-2.6c0-0.08,0-0.25-0.01-0.52c-0.01-0.27-0.01-0.43-0.03-0.5c-0.01-0.07-0.03-0.12-0.06-0.15
		c-0.03-0.03-0.08-0.04-0.16-0.06c-0.08-0.01-0.18-0.02-0.32-0.02l-0.03-0.03v-0.16l0.03-0.03C123.2,98,123.45,98,123.79,98
		c0.3,0,0.53-0.01,0.67-0.02L124.49,98.01z"/>
	<path d="M125.67,102.76v-0.17l0.03-0.02c0.21-0.01,0.35-0.02,0.42-0.03c0.07-0.01,0.11-0.03,0.14-0.06
		c0.02-0.02,0.04-0.06,0.06-0.13c0.01-0.07,0.02-0.23,0.03-0.46v-2.27l-0.01-0.65c0-0.26-0.01-0.42-0.02-0.49
		c-0.01-0.08-0.03-0.13-0.04-0.15c-0.03-0.03-0.06-0.04-0.13-0.06c-0.06-0.02-0.21-0.03-0.44-0.04l-0.03-0.03v-0.17L125.7,98
		l0.42,0.01c0.28,0.01,0.46,0.01,0.54,0.01c0.08,0,0.4-0.01,0.96-0.03l0.03,0.03v0.17l-0.03,0.03c-0.15,0.01-0.27,0.01-0.36,0.02
		c-0.09,0.01-0.15,0.03-0.18,0.05s-0.06,0.08-0.08,0.17c-0.01,0.09-0.02,0.22-0.02,0.38l-0.01,0.77v2.22
		c0.01,0.25,0.01,0.42,0.02,0.49c0.01,0.07,0.03,0.12,0.05,0.15c0.03,0.03,0.06,0.04,0.13,0.06c0.06,0.02,0.21,0.03,0.44,0.04
		l0.03,0.02v0.17l-0.03,0.03l-0.59-0.02c-0.16-0.01-0.29-0.01-0.37-0.01c-0.07,0-0.39,0.01-0.96,0.03L125.67,102.76z"/>
	<path d="M129.82,102.73v-0.17l0.03-0.02c0.21-0.01,0.35-0.02,0.42-0.03c0.07-0.01,0.11-0.03,0.14-0.06
		c0.02-0.02,0.04-0.06,0.06-0.13c0.01-0.07,0.02-0.23,0.02-0.46l0.01-0.72v-1.96l-0.03-0.88h-0.5c-0.2,0-0.39,0.01-0.53,0.01
		c-0.15,0.01-0.24,0.03-0.26,0.07c-0.03,0.04-0.05,0.16-0.07,0.36l-0.03,0.31l-0.03,0.03h-0.15l-0.03-0.03
		c0-0.54-0.01-0.89-0.02-1.05l0.02-0.03c0.39,0.02,1.04,0.03,1.95,0.03c0.92,0,1.58-0.01,1.95-0.03l0.03,0.03
		c-0.02,0.2-0.03,0.55-0.03,1.05l-0.03,0.03h-0.16l-0.03-0.03l-0.04-0.31c-0.02-0.16-0.03-0.27-0.04-0.3
		c-0.01-0.04-0.03-0.06-0.04-0.08c-0.03-0.01-0.09-0.03-0.22-0.04c-0.12-0.01-0.26-0.02-0.41-0.02h-0.64
		c-0.02,0.51-0.03,0.8-0.03,0.88v1.96l0.01,0.66c0,0.25,0.01,0.42,0.02,0.49c0.01,0.08,0.03,0.13,0.04,0.15
		c0.03,0.03,0.06,0.04,0.13,0.06c0.06,0.02,0.21,0.03,0.45,0.04l0.03,0.02v0.17l-0.03,0.03c-0.58-0.02-0.89-0.03-0.96-0.03
		c-0.07,0-0.39,0.01-0.96,0.03L129.82,102.73z"/>
	<path d="M135.31,102.73v-0.17l0.03-0.02c0.22-0.01,0.35-0.02,0.42-0.03c0.06-0.01,0.11-0.03,0.13-0.06
		c0.03-0.02,0.04-0.06,0.06-0.12c0.01-0.06,0.02-0.19,0.03-0.38l0.01-0.58v-0.64c-0.05-0.12-0.21-0.41-0.49-0.87l-0.3-0.48
		c-0.09-0.15-0.22-0.33-0.35-0.53c-0.15-0.2-0.25-0.34-0.34-0.41c-0.08-0.08-0.17-0.15-0.27-0.2c-0.04-0.03-0.09-0.05-0.15-0.06
		c-0.03-0.01-0.09,0-0.11-0.03l-0.03-0.03v-0.14l0.03-0.03l0.96-0.01c0.07,0.04,0.13,0.11,0.2,0.18c0.06,0.07,0.16,0.21,0.28,0.41
		c0.12,0.2,0.28,0.47,0.48,0.82c0.19,0.35,0.37,0.7,0.55,1.06l0.35-0.54l0.39-0.65l0.71-1.22c0.09,0.01,0.18,0.01,0.26,0.01
		c0.05,0,0.13-0.01,0.23-0.01l0.03,0.03v0.06c-0.11,0.13-0.29,0.35-0.52,0.67c-0.23,0.32-0.41,0.58-0.53,0.76s-0.26,0.41-0.42,0.69
		c-0.17,0.28-0.27,0.44-0.28,0.5c-0.02,0.06-0.03,0.12-0.03,0.2v0.5l0.01,0.5c0,0.2,0.01,0.34,0.02,0.41
		c0.01,0.08,0.03,0.13,0.05,0.15c0.03,0.03,0.06,0.04,0.12,0.06c0.06,0.02,0.21,0.03,0.45,0.04l0.03,0.02v0.17l-0.03,0.03l-0.6-0.02
		c-0.16-0.01-0.28-0.01-0.37-0.01c-0.07,0-0.39,0.01-0.96,0.03L135.31,102.73z"/>
</g>
<path d="M76.91,98.71c0,0.3-0.09,0.61-0.25,0.9c-0.28,0.51-0.83,0.92-1.62,0.97c1.47,1.74,0.58,5.38-3.22,5.36
	c-1.8-0.02-3.55-1.07-3.61-3.15c-0.03-1.12,0.53-2.3,1.57-3.05c0.44-0.31,0.96-0.57,1.52-0.74c-0.27-0.09-0.54-0.2-0.77-0.34
	c-0.57-0.34-0.85-0.86-0.85-1.38c0.01-1.17,1.19-1.8,2.28-1.79c0.94,0,1.81,0.47,1.8,1.47c0,0.51-0.24,1.07-0.66,1.37
	c-0.63,0.44-1.18-0.28-0.81-0.74c0.13-0.15,0.32-0.26,0.56-0.28c0.36-0.04,0.69-0.04,0.61-0.54c-0.1-0.67-0.73-1-1.38-0.98
	c-0.73,0.03-1.49,0.53-1.47,1.53c0.01,0.33,0.13,0.66,0.36,0.93c0.24,0.28,0.58,0.51,1.02,0.64l-0.08,0.26c-0.02,0-0.04,0.01-0.05,0
	c-0.76,0.16-1.36,0.54-1.79,1.03c-0.61,0.7-0.95,1.61-0.91,2.52c0.06,2.01,1.51,2.93,2.98,2.91c3.66-0.05,3.87-5.67,0.8-5.64
	c-0.22,0-0.43,0.04-0.63,0.13c-0.48,0.19-0.85,0.58-0.97,1.09c-0.03,0.13-0.04,0.26-0.04,0.38c0.02,0.23,0.1,0.43,0.25,0.57
	c0.22,0.15,0.42-0.01,0.66-0.16c0.19-0.14,0.42-0.18,0.61-0.14c0.58,0.11,0.61,1.01-0.15,1.08c-0.74,0.06-1.59-0.53-1.65-1.3
	c-0.01-0.15,0.01-0.32,0.05-0.48c0.14-0.6,0.57-1.04,1.13-1.28c0.24-0.1,0.49-0.14,0.74-0.15c0.75,0,1.37,0.24,1.82,0.62
	c0.84,0.02,1.39-0.36,1.66-0.83c0.14-0.25,0.21-0.52,0.21-0.77c0-0.25-0.06-0.48-0.19-0.67c-0.16-0.25-0.43-0.4-0.81-0.4
	c-0.15,0.06-0.22,0.27-0.3,0.48c-0.09,0.22-0.25,0.39-0.42,0.46c-0.55,0.24-1.09-0.48-0.5-0.97c0.62-0.52,1.79-0.44,2.26,0.26
	C76.83,98.11,76.91,98.4,76.91,98.71z"/>
</svg>
